<?xml version="1.0" standalone="no"?>
<!DOCTYPE svg PUBLIC "-//W3C//DTD SVG 20010904//EN"
 "http://www.w3.org/TR/2001/REC-SVG-20010904/DTD/svg10.dtd">
<svg version="1.0" xmlns="http://www.w3.org/2000/svg"
 width="32.000000pt" height="32.000000pt" viewBox="0 0 32.000000 32.000000"
 preserveAspectRatio="xMidYMid meet">

<g transform="translate(0.000000,32.000000) scale(0.100000,-0.100000)"
fill="#000000" stroke="none">
<path d="M116 310 c-42 -13 -95 -68 -107 -112 -20 -75 23 -155 96 -183 78 -30
162 3 195 78 24 53 25 81 1 133 -30 66 -116 105 -185 84z m68 -126 c9 -8 16
-21 16 -28 0 -16 -20 -36 -36 -36 -14 0 -44 27 -44 40 0 5 7 16 16 24 8 9 19
16 24 16 5 0 16 -7 24 -16z m-68 -59 c13 -14 32 -25 44 -25 12 0 31 11 44 25
27 29 86 36 86 9 0 -45 -80 -115 -131 -114 -55 1 -129 66 -129 115 0 26 59 19
86 -10z"/>
<path d="M145 171 c-8 -15 3 -31 21 -31 9 0 14 7 12 17 -4 20 -24 28 -33 14z"/>
</g>
</svg>
